<svg xmlns="http://www.w3.org/2000/svg" xmlns:xlink="http://www.w3.org/1999/xlink" viewBox="0 0 482 92"><defs><style>.cls-1{fill:none;}.cls-2{fill:#fff;}.cls-3{clip-path:url(#clip-path);}.cls-4{fill:url(#linear-gradient);}</style><clipPath id="clip-path"><path class="cls-1" d="M18.41,78.43V46.23h14V28.47h15a7.71,7.71,0,0,1,3.7.91A10.23,10.23,0,0,1,54,31.75,11,11,0,0,1,56,35.07a10.44,10.44,0,0,1,0,7.67,10.25,10.25,0,0,1-2.07,3.32l4.81,9.72a19.17,19.17,0,0,0,7.18-6.93,18.89,18.89,0,0,0,2.7-10A19.35,19.35,0,0,0,56.14,20.58,22.15,22.15,0,0,0,48,19.09H18.41V16.18H48a24.44,24.44,0,0,1,9.17,1.71,23.13,23.13,0,0,1,7.47,4.73,22,22,0,0,1,5,7.18,22.29,22.29,0,0,1,1.82,9,21.82,21.82,0,0,1-3.11,11.58,22.26,22.26,0,0,1-8.34,8l10,20H51L43.4,61.5h-11V49.22h-11V75.45h14v3ZM45.14,58.51H48A21.63,21.63,0,0,0,56.1,57l-5.81-11.7a7.45,7.45,0,0,0,2.49-3,8.15,8.15,0,0,0,.91-3.53,7.13,7.13,0,0,0-.46-2.44A9,9,0,0,0,52,34a7,7,0,0,0-2-1.83,4.84,4.84,0,0,0-2.57-.7h-12V46.23h4.31Zm-7.39-9.29h-2.4v9.29H42ZM52.86,75.45H65.23L57.42,59.68A25.35,25.35,0,0,1,48,61.5H46.55Zm49.22-32.62a9.26,9.26,0,0,0-3.7.74,10.08,10.08,0,0,0-5.1,5.11,9,9,0,0,0-.75,3.69A6.56,6.56,0,0,0,93,54.9a8.34,8.34,0,0,0,1.33,2.2h30.05c0-.44.09-.87.12-1.28s0-.85,0-1.29a23.06,23.06,0,0,0-1.7-8.8,22.67,22.67,0,0,0-4.69-7.22,22.12,22.12,0,0,0-7.1-4.85,22.35,22.35,0,0,0-9-1.79,18.47,18.47,0,0,0-12.62,4.94,17.32,17.32,0,0,0-3.82,5.35,16,16,0,0,0,0,13.12A17.91,17.91,0,0,0,102,65.65a23.51,23.51,0,0,0,7.59-1.16,25.71,25.71,0,0,0,5.77-2.66L122,73.62a37.17,37.17,0,0,1-9.13,4.57A33.92,33.92,0,0,1,102,79.85a27.26,27.26,0,0,1-10.13-1.91,27.8,27.8,0,0,1-8.51-5.27,24.89,24.89,0,0,1-5.85-8,23.76,23.76,0,0,1-2.16-10.13h3a20.66,20.66,0,0,0,2,9,22.51,22.51,0,0,0,5.19,7A23.23,23.23,0,0,0,93,75.16a26.88,26.88,0,0,0,9,1.7,36,36,0,0,0,8.25-1,25.33,25.33,0,0,0,7.85-3.24L114,65.82a31.83,31.83,0,0,1-6.39,2.24,27,27,0,0,1-5.64.58,20.67,20.67,0,0,1-8.1-1.58,21.26,21.26,0,0,1-6.6-4.27,19.93,19.93,0,0,1-4.44-6.31,18.73,18.73,0,0,1-1.61-7.76A18.41,18.41,0,0,1,82.91,41a19.91,19.91,0,0,1,4.48-6.31A21.7,21.7,0,0,1,94,30.46a20.76,20.76,0,0,1,8.09-1.58,25.89,25.89,0,0,1,10.12,1.95,25,25,0,0,1,8.1,5.4,24.48,24.48,0,0,1,5.35,8.13,26.8,26.8,0,0,1,1.91,10.17,22.74,22.74,0,0,1-.17,2.82,26,26,0,0,1-.49,2.74H92.78a21.69,21.69,0,0,1-2.24-3.53,9.11,9.11,0,0,1-1-4.19,12.06,12.06,0,0,1,1-4.85,13,13,0,0,1,2.7-4,12.77,12.77,0,0,1,4-2.69,11.91,11.91,0,0,1,4.86-1,12.1,12.1,0,0,1,8.38,3.32,13.71,13.71,0,0,1,2.74,3.65,12.4,12.4,0,0,1,1.33,4.4h-3a10,10,0,0,0-1.08-3.28,9.66,9.66,0,0,0-2.07-2.65,9.93,9.93,0,0,0-2.87-1.79A9,9,0,0,0,102.08,42.83Zm72-12.45h-3V13.69H188V78.43H171.05v-6.3a18.45,18.45,0,0,1-5.48,5.35,15.85,15.85,0,0,1-9,2.37,21.38,21.38,0,0,1-9.38-2,21.13,21.13,0,0,1-7.06-5.39,23.9,23.9,0,0,1-4.44-8,33.18,33.18,0,0,1,0-19.92,24.29,24.29,0,0,1,4.44-8.09A21,21,0,0,1,147.23,31a21.38,21.38,0,0,1,9.38-2,16.85,16.85,0,0,1,6.76,1.37,17.38,17.38,0,0,1,9.3,9.29A17.07,17.07,0,0,1,174,46.4v8a11.91,11.91,0,0,1-1,4.86,12.69,12.69,0,0,1-6.68,6.68,12.29,12.29,0,0,1-9.71,0A12.78,12.78,0,0,1,150,59.22a12.29,12.29,0,0,1,0-9.71,12.69,12.69,0,0,1,6.68-6.68,11.91,11.91,0,0,1,4.86-1v3a9.1,9.1,0,0,0-3.7.75,9.9,9.9,0,0,0-3,2.07,10.08,10.08,0,0,0-2.07,3,9.48,9.48,0,0,0,0,7.39,9.92,9.92,0,0,0,5.1,5.1,9.48,9.48,0,0,0,7.39,0,10.08,10.08,0,0,0,3-2.07,9.9,9.9,0,0,0,2.07-3,9.1,9.1,0,0,0,.75-3.7v-8a14.05,14.05,0,0,0-1.12-5.61,14.6,14.6,0,0,0-7.72-7.71,14,14,0,0,0-5.6-1.13,17.84,17.84,0,0,0-8.18,1.83,18.32,18.32,0,0,0-6.1,4.94,22.45,22.45,0,0,0-3.81,7.18,26.94,26.94,0,0,0-1.33,8.46,27.22,27.22,0,0,0,1.33,8.55,22.45,22.45,0,0,0,3.81,7.18,18.32,18.32,0,0,0,6.1,4.94,17.84,17.84,0,0,0,8.18,1.83,14.07,14.07,0,0,0,7.1-1.83,17.84,17.84,0,0,0,5.85-5.89H174v6.31h11V16.68H174Zm40.83,9.71V78.43H197.94V16.18h3l11,14.78V16.18H215l16.93,20,17-20h3V75.45h11V16.18h3V78.43H248.9V20.75L233.38,38.93h-3L214.87,20.58V35.44l17.68,22.33-2.15,1.74Zm-3,35.36V35.86l-11-14.78V75.45ZM307,30.38h16.94V78.43H310v-3h11V33.37H310V62.75a16.77,16.77,0,0,1-1.33,6.68,17.16,17.16,0,0,1-27.89,5.44,17.4,17.4,0,0,1-3.65-5.44,17,17,0,0,1-1.33-6.68V30.38h16.94V56.85a6.59,6.59,0,0,0,.58,2.78,7.53,7.53,0,0,0,1.53,2.25,7.61,7.61,0,0,0,2.24,1.53,6.66,6.66,0,0,0,2.78.58v3a10,10,0,0,1-3.94-.79,10,10,0,0,1-5.39-5.39,10,10,0,0,1-.79-3.95V33.37h-11V62.75a13.7,13.7,0,0,0,1.12,5.48,14.24,14.24,0,0,0,7.52,7.51,13.94,13.94,0,0,0,10.95,0,14.26,14.26,0,0,0,7.51-7.51A13.53,13.53,0,0,0,307,62.75Zm50.22,14.19H333.06V30.38h30.88v3H336.05v8.21H361l13.78-11.2h3V44.57H361.87l-25.82,21v9.88h38.68V67.23H351.82v-3l15.11-12.95,2,2.16L356.3,64.24h21.42V78.43H333.06V64.24Zm17.51-3V34.11l-9.21,7.47ZM386.1,19.34a8.59,8.59,0,0,1,.75-3.57,9.58,9.58,0,0,1,4.89-4.9,9,9,0,0,1,7.14,0,9.55,9.55,0,0,1,4.9,4.9,8.59,8.59,0,0,1,.75,3.57,8.78,8.78,0,0,1-1.46,4.94,9.82,9.82,0,0,1-3.69,3.36l-.58.33,5,2.41V78.43h-3V32.29l-5.48-2.66-5.48,2.66V78.43h-3V30.38l5-2.41-.58-.33a9.85,9.85,0,0,1-3.7-3.36A8.78,8.78,0,0,1,386.1,19.34Zm15.44,0a6.23,6.23,0,1,0-12.45,0,5.88,5.88,0,0,0,1,3.32,6.57,6.57,0,0,0,2.49,2.24l2.74,1.33,2.74-1.33a6.43,6.43,0,0,0,2.49-2.24A5.82,5.82,0,0,0,401.54,19.34Zm36.77,25.81a8.52,8.52,0,0,0-3.57.75,10.29,10.29,0,0,0-2.95,2,9.14,9.14,0,0,0-2,3,8.63,8.63,0,0,0-.75,3.52h-2.9a11.52,11.52,0,0,1,.95-4.68,12.56,12.56,0,0,1,2.66-3.91,12.37,12.37,0,0,1,3.9-2.65,11.58,11.58,0,0,1,4.69-1,10.83,10.83,0,0,1,4.56,1,15.83,15.83,0,0,1,4.07,2.74l8.88-5.81a18.73,18.73,0,0,0-7.6-6.1,23.82,23.82,0,0,0-9.91-2.12A19.47,19.47,0,0,0,431.58,33a17.63,17.63,0,0,0-5.52,3.24A14.9,14.9,0,0,0,421,47.72a16.65,16.65,0,0,0,1.2,6.35,15.61,15.61,0,0,0,3.32,5.11,15,15,0,0,0,5,3.36,16.38,16.38,0,0,0,6.31,1.2,10.37,10.37,0,0,0,2.66-.37,13,13,0,0,0,2.7-1,12.58,12.58,0,0,0,2.36-1.57,7.6,7.6,0,0,0,1.66-1.91l13.7,9a25.39,25.39,0,0,1-8.84,8.76,24.53,24.53,0,0,1-12.74,3.28,27.36,27.36,0,0,1-10.25-1.91,25.56,25.56,0,0,1-8.35-5.36,24.91,24.91,0,0,1-7.63-18.22h3a22.36,22.36,0,0,0,1.78,9,21.54,21.54,0,0,0,4.94,7.1,23.34,23.34,0,0,0,7.39,4.69,24.31,24.31,0,0,0,9.13,1.7,22.6,22.6,0,0,0,9.79-2.16,21.46,21.46,0,0,0,7.72-6.14l-9-5.9a8.78,8.78,0,0,1-2,1.62,22.83,22.83,0,0,1-2.57,1.29,14.19,14.19,0,0,1-2.78.87,12.79,12.79,0,0,1-2.66.29,19.12,19.12,0,0,1-7.51-1.45,18.4,18.4,0,0,1-6-4,17.8,17.8,0,0,1-3.95-6A20,20,0,0,1,418,47.72a17.88,17.88,0,0,1,1.62-7.63,18.11,18.11,0,0,1,4.4-6,20.13,20.13,0,0,1,6.47-3.86,22.46,22.46,0,0,1,7.85-1.37,24.53,24.53,0,0,1,12.74,3.28,25.39,25.39,0,0,1,8.84,8.76l-13.7,9a9.44,9.44,0,0,0-3.28-3.4A8.53,8.53,0,0,0,438.31,45.15Z"/></clipPath><linearGradient id="linear-gradient" x1="123.06" y1="-100.65" x2="358.94" y2="190.65" gradientUnits="userSpaceOnUse"><stop offset="0" stop-color="red"/><stop offset="0.51" stop-color="blue"/><stop offset="0.95" stop-color="#00a99d"/></linearGradient></defs><g id="Layer_6" data-name="Layer 6"><path d="M438.31,80.35a28,28,0,0,1-10.44-1.95,26.05,26.05,0,0,1-8.5-5.46,25.36,25.36,0,0,1-7.79-18.58v-.5h4v.5a21.89,21.89,0,0,0,1.74,8.81,21,21,0,0,0,4.82,6.93,22.75,22.75,0,0,0,7.23,4.59,23.79,23.79,0,0,0,8.95,1.67,22.25,22.25,0,0,0,9.58-2.11,21,21,0,0,0,7.19-5.58l-8.15-5.36a9.46,9.46,0,0,1-1.85,1.4A21.67,21.67,0,0,1,442.44,66a15.13,15.13,0,0,1-2.87.9,13.69,13.69,0,0,1-2.76.3,19.65,19.65,0,0,1-7.7-1.49A19.08,19.08,0,0,1,423,61.65a18.42,18.42,0,0,1-4.05-6.19,20.5,20.5,0,0,1-1.45-7.74,18.41,18.41,0,0,1,1.67-7.84,18.7,18.7,0,0,1,4.52-6.14,20.66,20.66,0,0,1,6.63-4,22.93,22.93,0,0,1,8-1.4,25.08,25.08,0,0,1,13,3.35,25.77,25.77,0,0,1,9,8.93l.25.41L446,50.59l-.27-.46a9,9,0,0,0-3.1-3.23,8.08,8.08,0,0,0-4.34-1.25,8.27,8.27,0,0,0-3.37.7,9.83,9.83,0,0,0-2.8,1.9A8.68,8.68,0,0,0,430.22,51a8.16,8.16,0,0,0-.71,3.32v.5h-3.9v-.5a12.17,12.17,0,0,1,1-4.88,13.11,13.11,0,0,1,6.82-6.82,12.22,12.22,0,0,1,4.89-1,11.18,11.18,0,0,1,4.77,1.05A16.44,16.44,0,0,1,447,45.27L455.1,40A18.54,18.54,0,0,0,448,34.44a23.52,23.52,0,0,0-9.71-2.07,18.86,18.86,0,0,0-6.55,1.13,17,17,0,0,0-5.37,3.15,14.82,14.82,0,0,0-3.61,4.81,14.53,14.53,0,0,0-1.32,6.26,16.14,16.14,0,0,0,1.17,6.17,15.22,15.22,0,0,0,3.21,4.94,14.56,14.56,0,0,0,4.86,3.25,15.91,15.91,0,0,0,6.11,1.16,10.31,10.31,0,0,0,2.53-.35,13.19,13.19,0,0,0,2.6-1,12.16,12.16,0,0,0,2.27-1.52,7.14,7.14,0,0,0,1.55-1.77l.26-.46,14.54,9.52-.25.41a25.77,25.77,0,0,1-9,8.93A25.08,25.08,0,0,1,438.31,80.35Zm-145.42,0A17.34,17.34,0,0,1,286,79a17.5,17.5,0,0,1-10.73-16.23V29.88h17.94v27a6.3,6.3,0,0,0,.53,2.58,6.84,6.84,0,0,0,1.44,2.09A7,7,0,0,0,297.29,63a6.29,6.29,0,0,0,2.57.53h.5v4h-.5a10.6,10.6,0,0,1-10.62-10.63v-23h-10V62.75A13.26,13.26,0,0,0,280.36,68a14,14,0,0,0,2.93,4.32,13.81,13.81,0,0,0,4.32,2.93,13.45,13.45,0,0,0,10.56,0A13.77,13.77,0,0,0,305.42,68a13.09,13.09,0,0,0,1.08-5.28V29.88h17.94V78.93H309.49V75h11V33.87h-10V62.75a17.51,17.51,0,0,1-17.6,17.6Zm-136.28,0a21.54,21.54,0,0,1-16.82-7.57,24.24,24.24,0,0,1-4.53-8.21,33.61,33.61,0,0,1,0-20.24,24.87,24.87,0,0,1,4.53-8.26A21.69,21.69,0,0,1,147,30.51a21.92,21.92,0,0,1,9.6-2,17.46,17.46,0,0,1,7,1.41,18,18,0,0,1,5.72,3.84,18.33,18.33,0,0,1,3.84,5.71,17.72,17.72,0,0,1,1.41,7v8a12.55,12.55,0,0,1-1,5.06,13.45,13.45,0,0,1-2.8,4.14,13.63,13.63,0,0,1-4.14,2.8,12.81,12.81,0,0,1-10.11,0,13.18,13.18,0,0,1-6.94-6.94,12.81,12.81,0,0,1,0-10.11,13.18,13.18,0,0,1,6.94-6.94,12.55,12.55,0,0,1,5.06-1h.5v4h-.5a8.78,8.78,0,0,0-3.5.7,9.59,9.59,0,0,0-4.84,4.85,9,9,0,0,0,0,7A9.52,9.52,0,0,0,158,62.7a9,9,0,0,0,7,0,9.49,9.49,0,0,0,4.85-4.84,8.78,8.78,0,0,0,.7-3.5v-8A13.58,13.58,0,0,0,169.47,41,14.17,14.17,0,0,0,162,33.53a13.74,13.74,0,0,0-5.4-1.08,17.41,17.41,0,0,0-8,1.78,17.91,17.91,0,0,0-5.94,4.8,22.27,22.27,0,0,0-3.73,7,27.5,27.5,0,0,0,0,16.71,22.27,22.27,0,0,0,3.73,7,17.79,17.79,0,0,0,5.94,4.8,17.39,17.39,0,0,0,8,1.78,13.59,13.59,0,0,0,6.85-1.76,17.33,17.33,0,0,0,5.68-5.73l.15-.23h5.25V75h10V17.18h-10v13.7h-4V13.19h17.93V78.93H170.55V73.68a20.39,20.39,0,0,1-4.7,4.22A16.49,16.49,0,0,1,156.61,80.35Zm-54.61,0A27.83,27.83,0,0,1,91.69,78.4,28.15,28.15,0,0,1,83,73a25.44,25.44,0,0,1-6-8.17,24.26,24.26,0,0,1-2.21-10.34V54h4v.5a20.26,20.26,0,0,0,1.9,8.83,22.23,22.23,0,0,0,5.07,6.86,23,23,0,0,0,7.36,4.47A26.41,26.41,0,0,0,102,76.36a35.61,35.61,0,0,0,8.14-1,25.34,25.34,0,0,0,7.27-2.91l-3.58-6a31.53,31.53,0,0,1-6.09,2.09,27.87,27.87,0,0,1-5.74.59,21.24,21.24,0,0,1-8.29-1.62A21.68,21.68,0,0,1,87,63.15a20.45,20.45,0,0,1-4.55-6.46,19.65,19.65,0,0,1,0-15.9A20.48,20.48,0,0,1,87,34.33,22.51,22.51,0,0,1,93.79,30a21.46,21.46,0,0,1,8.29-1.62,26.55,26.55,0,0,1,10.32,2,25.52,25.52,0,0,1,8.25,5.51,24.93,24.93,0,0,1,5.46,8.29,27.41,27.41,0,0,1,2,10.36,23.86,23.86,0,0,1-.17,2.88,25.17,25.17,0,0,1-.51,2.8l-.09.38H92.54l-.15-.19a21,21,0,0,1-2.29-3.61,9.57,9.57,0,0,1-1-4.42,12.53,12.53,0,0,1,1-5A13.27,13.27,0,0,1,97,40.38a12.71,12.71,0,0,1,13.79,2.42,14.12,14.12,0,0,1,2.83,3.78A13,13,0,0,1,115,51.16l0,.55h-4l-.07-.43A9.29,9.29,0,0,0,105.33,44a8.94,8.94,0,0,0-6.74.08,9.46,9.46,0,0,0-4.85,4.85A8.61,8.61,0,0,0,93,52.37a6.14,6.14,0,0,0,.46,2.34A8,8,0,0,0,94.6,56.6H124c0-.28.05-.55.07-.82s0-.82,0-1.25a22.68,22.68,0,0,0-1.66-8.61,22.14,22.14,0,0,0-4.59-7.06,21.69,21.69,0,0,0-6.94-4.75,22,22,0,0,0-8.8-1.74,18,18,0,0,0-6.74,1.29,17.58,17.58,0,0,0-5.53,3.51,16.8,16.8,0,0,0-3.71,5.2,15.4,15.4,0,0,0,0,12.7,17.12,17.12,0,0,0,9.2,8.79,17.42,17.42,0,0,0,6.7,1.29A23.31,23.31,0,0,0,109.43,64a26.06,26.06,0,0,0,5.66-2.61l.44-.28,7.13,12.64-.38.26A37.45,37.45,0,0,1,113,78.66,34.36,34.36,0,0,1,102,80.35Zm298.29-1.42V32.6l-5-2.41-5,2.41V78.93h-4V30.06l4.4-2.12a10.25,10.25,0,0,1-3.61-3.39,9.52,9.52,0,0,1-.75-9,10.31,10.31,0,0,1,2.1-3.05,10,10,0,0,1,3.05-2.09,9.41,9.41,0,0,1,7.55,0,10.15,10.15,0,0,1,3.05,2.09,10.5,10.5,0,0,1,2.1,3.05,9.52,9.52,0,0,1-.75,9,10.34,10.34,0,0,1-3.61,3.39l4.4,2.12V78.93Zm-5-65.32a5.74,5.74,0,0,0-5.72,5.73,5.35,5.35,0,0,0,.91,3,5.83,5.83,0,0,0,2.3,2.07l2.51,1.22,2.52-1.22a5.9,5.9,0,0,0,2.3-2.07,5.64,5.64,0,0,0-.77-7.09A5.48,5.48,0,0,0,395.31,13.61ZM332.56,78.93V64l23.25-18.93H332.56V29.88h31.88v4H336.55v7.21h24.22l13.78-11.2h3.67V45.07H362L336.55,65.81V75h37.68V67.73H351.32V64L367,50.6l2.67,2.89-12,10.25h20.56V78.93Zm41.67-37.85V35.16l-7.3,5.92ZM248.4,78.93V22.1L233.61,39.43h-3.45L215.37,22V35.27l17.88,22.58-2.93,2.37-14.95-18.7V78.93H197.44V15.68h3.74l10.21,13.76V15.68h3.8l16.7,19.73,16.78-19.73h3.72V75h10V15.68h4V78.93Zm-37-4V36l-10-13.42V75Zm-160.68,4L43.07,62H31.86V49.72h-10V75h14v4H17.91V45.73h14V28H47.38a8.26,8.26,0,0,1,3.93,1,10.66,10.66,0,0,1,3.09,2.48,11.8,11.8,0,0,1,2,3.47,11.18,11.18,0,0,1,.74,4,11.38,11.38,0,0,1-.78,4.09,11.11,11.11,0,0,1-1.94,3.22l4.42,8.93a18.73,18.73,0,0,0,6.54-6.49,18.52,18.52,0,0,0,2.63-9.75,19,19,0,0,0-1.54-7.64A18.69,18.69,0,0,0,56,21.05a21.54,21.54,0,0,0-8-1.46h-30V15.68H48a25.28,25.28,0,0,1,9.36,1.74A24.12,24.12,0,0,1,65,22.25a22.65,22.65,0,0,1,5.13,7.34A22.89,22.89,0,0,1,72,38.84a22.4,22.4,0,0,1-3.18,11.84,22.87,22.87,0,0,1-8.11,8l10.11,20.3Zm13.71-4L57.18,60.31A26,26,0,0,1,48,62h-.63l5.85,13ZM48,58a21.44,21.44,0,0,0,7.44-1.26l-5.75-11.6L50,44.9a6.92,6.92,0,0,0,2.33-2.75,7.62,7.62,0,0,0,.86-3.31,6.72,6.72,0,0,0-.43-2.28,8.32,8.32,0,0,0-1.22-2.27,6.24,6.24,0,0,0-1.85-1.7A4.38,4.38,0,0,0,47.38,32H35.85V45.73H40L45.47,58Zm-6.75,0-3.78-8.29H35.85V58Z"/><path class="cls-2" d="M395.31,10.13a8.55,8.55,0,0,1,3.57.74,9.55,9.55,0,0,1,4.9,4.9,8.59,8.59,0,0,1,.75,3.57,8.78,8.78,0,0,1-1.46,4.94,9.82,9.82,0,0,1-3.69,3.36l-.58.33,5,2.41V78.43h-3V32.29l-5.48-2.66-5.48,2.66V78.43h-3V30.38l5-2.41-.58-.33a9.85,9.85,0,0,1-3.7-3.36,8.78,8.78,0,0,1-1.45-4.94,8.59,8.59,0,0,1,.75-3.57,9.58,9.58,0,0,1,4.89-4.9,8.58,8.58,0,0,1,3.57-.74m0,16.1,2.74-1.33a6.43,6.43,0,0,0,2.49-2.24,5.82,5.82,0,0,0,1-3.32,6.23,6.23,0,1,0-12.45,0,5.88,5.88,0,0,0,1,3.32,6.57,6.57,0,0,0,2.49,2.24l2.74,1.33M188,13.69V78.43H171.05v-6.3a18.45,18.45,0,0,1-5.48,5.35,15.85,15.85,0,0,1-9,2.37,21.38,21.38,0,0,1-9.38-2,21.13,21.13,0,0,1-7.06-5.39,23.9,23.9,0,0,1-4.44-8,33.18,33.18,0,0,1,0-19.92,24.29,24.29,0,0,1,4.44-8.09A21,21,0,0,1,147.23,31a21.38,21.38,0,0,1,9.38-2,16.85,16.85,0,0,1,6.76,1.37,17.38,17.38,0,0,1,9.3,9.29A17.07,17.07,0,0,1,174,46.4v8a11.91,11.91,0,0,1-1,4.86,12.69,12.69,0,0,1-6.68,6.68,12.29,12.29,0,0,1-9.71,0A12.78,12.78,0,0,1,150,59.22a12.29,12.29,0,0,1,0-9.71,12.69,12.69,0,0,1,6.68-6.68,11.91,11.91,0,0,1,4.86-1v3a9.1,9.1,0,0,0-3.7.75,9.9,9.9,0,0,0-3,2.07,10.08,10.08,0,0,0-2.07,3,9.48,9.48,0,0,0,0,7.39,9.92,9.92,0,0,0,5.1,5.1,9.48,9.48,0,0,0,7.39,0,10.08,10.08,0,0,0,3-2.07,9.9,9.9,0,0,0,2.07-3,9.1,9.1,0,0,0,.75-3.7v-8a14.05,14.05,0,0,0-1.12-5.61,14.6,14.6,0,0,0-7.72-7.71,14,14,0,0,0-5.6-1.13,17.84,17.84,0,0,0-8.18,1.83,18.32,18.32,0,0,0-6.1,4.94,22.45,22.45,0,0,0-3.81,7.18,26.94,26.94,0,0,0-1.33,8.46,27.22,27.22,0,0,0,1.33,8.55,22.45,22.45,0,0,0,3.81,7.18,18.32,18.32,0,0,0,6.1,4.94,17.84,17.84,0,0,0,8.18,1.83,14.07,14.07,0,0,0,7.1-1.83,17.84,17.84,0,0,0,5.85-5.89H174v6.31h11V16.68H174v13.7h-3V13.69H188m77.86,2.49V78.43H248.9V20.75L233.38,38.93h-3L214.87,20.58V35.44l17.68,22.33-2.15,1.74L214.87,40.09V78.43H197.94V16.18h3l11,14.78V16.18H215l16.93,20,17-20h3V75.45h11V16.18h3M200.93,75.45h11V35.86l-11-14.78V75.45M48,16.18a24.44,24.44,0,0,1,9.17,1.71,23.13,23.13,0,0,1,7.47,4.73,22,22,0,0,1,5,7.18,22.29,22.29,0,0,1,1.82,9,21.82,21.82,0,0,1-3.11,11.58,22.26,22.26,0,0,1-8.34,8l10,20H51L43.4,61.5h-11V49.22h-11V75.45h14v3H18.41V46.23h14V28.47h15a7.71,7.71,0,0,1,3.7.91A10.23,10.23,0,0,1,54,31.75,11,11,0,0,1,56,35.07a10.44,10.44,0,0,1,0,7.67,10.25,10.25,0,0,1-2.07,3.32l4.81,9.72a19.17,19.17,0,0,0,7.18-6.93,18.89,18.89,0,0,0,2.7-10A19.35,19.35,0,0,0,56.14,20.58,22.15,22.15,0,0,0,48,19.09H18.41V16.18H48M35.35,46.23h4.31l5.48,12.28H48A21.63,21.63,0,0,0,56.1,57l-5.81-11.7a7.45,7.45,0,0,0,2.49-3,8.15,8.15,0,0,0,.91-3.53,7.13,7.13,0,0,0-.46-2.44A9,9,0,0,0,52,34a7,7,0,0,0-2-1.83,4.84,4.84,0,0,0-2.57-.7h-12V46.23m0,12.28H42l-4.24-9.29h-2.4v9.29M52.86,75.45H65.23L57.42,59.68A25.35,25.35,0,0,1,48,61.5H46.55l6.31,14M438.31,28.88a24.53,24.53,0,0,1,12.74,3.28,25.39,25.39,0,0,1,8.84,8.76l-13.7,9a9.44,9.44,0,0,0-3.28-3.4,8.73,8.73,0,0,0-8.17-.58,10.29,10.29,0,0,0-2.95,2,9.14,9.14,0,0,0-2,3,8.63,8.63,0,0,0-.75,3.52h-2.9a11.52,11.52,0,0,1,.95-4.68,12.56,12.56,0,0,1,2.66-3.91,12.37,12.37,0,0,1,3.9-2.65,11.58,11.58,0,0,1,4.69-1,10.83,10.83,0,0,1,4.56,1,15.83,15.83,0,0,1,4.07,2.74l8.88-5.81a18.73,18.73,0,0,0-7.6-6.1,23.82,23.82,0,0,0-9.91-2.12A19.47,19.47,0,0,0,431.58,33a17.63,17.63,0,0,0-5.52,3.24A14.9,14.9,0,0,0,421,47.72a16.65,16.65,0,0,0,1.2,6.35,15.61,15.61,0,0,0,3.32,5.11,15,15,0,0,0,5,3.36,16.38,16.38,0,0,0,6.31,1.2,10.37,10.37,0,0,0,2.66-.37,13,13,0,0,0,2.7-1,12.58,12.58,0,0,0,2.36-1.57,7.6,7.6,0,0,0,1.66-1.91l13.7,9a25.39,25.39,0,0,1-8.84,8.76,24.53,24.53,0,0,1-12.74,3.28,27.36,27.36,0,0,1-10.25-1.91,25.56,25.56,0,0,1-8.35-5.36,24.91,24.91,0,0,1-7.63-18.22h3a22.36,22.36,0,0,0,1.78,9,21.54,21.54,0,0,0,4.94,7.1,23.34,23.34,0,0,0,7.39,4.69,24.31,24.31,0,0,0,9.13,1.7,22.6,22.6,0,0,0,9.79-2.16,21.46,21.46,0,0,0,7.72-6.14l-9-5.9a8.78,8.78,0,0,1-2,1.62,22.83,22.83,0,0,1-2.57,1.29,14.19,14.19,0,0,1-2.78.87,12.79,12.79,0,0,1-2.66.29,19.12,19.12,0,0,1-7.51-1.45,18.4,18.4,0,0,1-6-4,17.8,17.8,0,0,1-3.95-6A20,20,0,0,1,418,47.72a17.88,17.88,0,0,1,1.62-7.63,18.11,18.11,0,0,1,4.4-6,20.13,20.13,0,0,1,6.47-3.86,22.46,22.46,0,0,1,7.85-1.37m-336.23,0a25.89,25.89,0,0,1,10.12,1.95,25,25,0,0,1,8.1,5.4,24.48,24.48,0,0,1,5.35,8.13,26.8,26.8,0,0,1,1.91,10.17,22.74,22.74,0,0,1-.17,2.82,26,26,0,0,1-.49,2.74H92.78a21.69,21.69,0,0,1-2.24-3.53,9.11,9.11,0,0,1-1-4.19,12.06,12.06,0,0,1,1-4.85,13,13,0,0,1,2.7-4,12.77,12.77,0,0,1,4-2.69,11.91,11.91,0,0,1,4.86-1,12.1,12.1,0,0,1,8.38,3.32,13.71,13.71,0,0,1,2.74,3.65,12.4,12.4,0,0,1,1.33,4.4h-3a10,10,0,0,0-1.08-3.28,9.66,9.66,0,0,0-2.07-2.65,9.93,9.93,0,0,0-2.87-1.79,9,9,0,0,0-3.44-.66,9.26,9.26,0,0,0-3.7.74,10.08,10.08,0,0,0-5.1,5.11,9,9,0,0,0-.75,3.69A6.56,6.56,0,0,0,93,54.9a8.34,8.34,0,0,0,1.33,2.2h30.05c0-.44.09-.87.12-1.28s0-.85,0-1.29a23.06,23.06,0,0,0-1.7-8.8,22.67,22.67,0,0,0-4.69-7.22,22.12,22.12,0,0,0-7.1-4.85,22.35,22.35,0,0,0-9-1.79,18.47,18.47,0,0,0-12.62,4.94,17.32,17.32,0,0,0-3.82,5.35,16,16,0,0,0,0,13.12A17.91,17.91,0,0,0,102,65.65a23.51,23.51,0,0,0,7.59-1.16,25.71,25.71,0,0,0,5.77-2.66L122,73.62a37.17,37.17,0,0,1-9.13,4.57A33.92,33.92,0,0,1,102,79.85a27.26,27.26,0,0,1-10.13-1.91,27.8,27.8,0,0,1-8.51-5.27,24.89,24.89,0,0,1-5.85-8,23.76,23.76,0,0,1-2.16-10.13h3a20.66,20.66,0,0,0,2,9,22.51,22.51,0,0,0,5.19,7A23.23,23.23,0,0,0,93,75.16a26.88,26.88,0,0,0,9,1.7,36,36,0,0,0,8.25-1,25.33,25.33,0,0,0,7.85-3.24L114,65.82a31.83,31.83,0,0,1-6.39,2.24,27,27,0,0,1-5.64.58,20.67,20.67,0,0,1-8.1-1.58,21.26,21.26,0,0,1-6.6-4.27,19.93,19.93,0,0,1-4.44-6.31,18.73,18.73,0,0,1-1.61-7.76A18.41,18.41,0,0,1,82.91,41a19.91,19.91,0,0,1,4.48-6.31A21.7,21.7,0,0,1,94,30.46a20.76,20.76,0,0,1,8.09-1.58m275.64,1.5V44.57H361.87l-25.82,21v9.88h38.68V67.23H351.82v-3l15.11-12.95,2,2.16L356.3,64.24h21.42V78.43H333.06V64.24l24.16-19.67H333.06V30.38h30.88v3H336.05v8.21H361l13.78-11.2h3m-12.2,11.2h9.21V34.11l-9.21,7.47m-41.58-11.2V78.43H310v-3h11V33.37H310V62.75a16.77,16.77,0,0,1-1.33,6.68,17.16,17.16,0,0,1-27.89,5.44,17.4,17.4,0,0,1-3.65-5.44,17,17,0,0,1-1.33-6.68V30.38h16.94V56.85a6.59,6.59,0,0,0,.58,2.78,7.53,7.53,0,0,0,1.53,2.25,7.61,7.61,0,0,0,2.24,1.53,6.66,6.66,0,0,0,2.78.58v3a10,10,0,0,1-3.94-.79,10,10,0,0,1-5.39-5.39,10,10,0,0,1-.79-3.95V33.37h-11V62.75a13.7,13.7,0,0,0,1.12,5.48,14.24,14.24,0,0,0,7.52,7.51,13.94,13.94,0,0,0,10.95,0,14.26,14.26,0,0,0,7.51-7.51A13.53,13.53,0,0,0,307,62.75V30.38h16.94M395.31,9.13a9.69,9.69,0,0,0-4,.83,10.86,10.86,0,0,0-3.2,2.2,10.65,10.65,0,0,0-2.19,3.2,9.53,9.53,0,0,0-.84,4,9.74,9.74,0,0,0,1.62,5.49,10.73,10.73,0,0,0,3,3.05l-3.3,1.6-.56.27V79.43h5V32.91l4.48-2.17,4.48,2.17V79.43h5V29.75l-.57-.27-3.29-1.59a11,11,0,0,0,3-3.06,9.84,9.84,0,0,0,1.62-5.49,9.53,9.53,0,0,0-.84-4,10.66,10.66,0,0,0-5.4-5.4,9.69,9.69,0,0,0-4-.83Zm0,16L393,24a5.4,5.4,0,0,1-2.09-1.9,4.8,4.8,0,0,1-.83-2.76,5.23,5.23,0,0,1,10.45,0,4.8,4.8,0,0,1-.83,2.76,5.47,5.47,0,0,1-2.1,1.91l-2.3,1.11ZM189,12.69H170.05V31.38h5V17.68h9V74.45h-9V68.14h-6l-.3.45a16.82,16.82,0,0,1-5.51,5.57,13.08,13.08,0,0,1-6.6,1.7,16.93,16.93,0,0,1-7.72-1.72,17.53,17.53,0,0,1-5.78-4.67,21.93,21.93,0,0,1-3.64-6.87,26.87,26.87,0,0,1,0-16.39,21.93,21.93,0,0,1,3.64-6.87,17.49,17.49,0,0,1,5.77-4.67A17,17,0,0,1,156.61,33a13.14,13.14,0,0,1,5.21,1,13.61,13.61,0,0,1,7.19,7.2,13.14,13.14,0,0,1,1,5.21v8a8.14,8.14,0,0,1-.66,3.3,8.87,8.87,0,0,1-1.87,2.72,9,9,0,0,1-2.72,1.87,8.56,8.56,0,0,1-6.59,0,9.06,9.06,0,0,1-4.59-4.59,8.56,8.56,0,0,1,0-6.59,9.06,9.06,0,0,1,4.59-4.59,8.17,8.17,0,0,1,3.3-.66h1v-5h-1a13,13,0,0,0-5.26,1.08,13.77,13.77,0,0,0-7.2,7.2,13.32,13.32,0,0,0,0,10.51,13.77,13.77,0,0,0,7.2,7.2,13.32,13.32,0,0,0,10.51,0,13.77,13.77,0,0,0,7.2-7.2A13,13,0,0,0,175,54.36v-8a18.07,18.07,0,0,0-1.45-7.16,18.35,18.35,0,0,0-9.82-9.82A18,18,0,0,0,156.61,28a22.45,22.45,0,0,0-9.81,2.09,22,22,0,0,0-7.39,5.69,25.29,25.29,0,0,0-4.63,8.42,34.2,34.2,0,0,0,0,20.55,24.86,24.86,0,0,0,4.63,8.39,22,22,0,0,0,17.2,7.74,16.91,16.91,0,0,0,9.51-2.54A21.5,21.5,0,0,0,170.05,75v4.4H189V12.69Zm77.86,2.49h-5V74.45h-9V15.18h-4.45l-.3.36-16.25,19.1-16.17-19.1-.3-.36h-4.53V27.93l-9.16-12.34-.3-.41h-4.49V79.43h18.93V42.94l13.74,17.2.63.78.78-.63,2.16-1.74.77-.63-.61-.77L215.87,35.09V23.31l13.76,16.26.3.36h3.91l.3-.35L247.9,23.46v56h18.94V15.18ZM201.93,74.45V24.11l9,12.08V74.45ZM48,15.18H17.41v4.91H48a21.26,21.26,0,0,1,7.81,1.42A18.94,18.94,0,0,1,62,25.45a18.49,18.49,0,0,1,5.59,13.39A18,18,0,0,1,65,48.33a18.23,18.23,0,0,1-5.9,6l-4-8.15a11.43,11.43,0,0,0,1.81-3.11,11.49,11.49,0,0,0,0-8.4,12.21,12.21,0,0,0-2.13-3.61,11.32,11.32,0,0,0-3.23-2.6,8.79,8.79,0,0,0-4.17-1h-16V45.23H17.41v34.2H36.35v-5h-14V50.22h9V62.5H42.75l7.37,16.35.27.58H71.57L70.85,78,61.31,58.83a23.41,23.41,0,0,0,7.88-7.89,22.78,22.78,0,0,0,3.26-12.1,23.33,23.33,0,0,0-1.91-9.45,23.09,23.09,0,0,0-5.25-7.5A24.09,24.09,0,0,0,57.5,17,25.57,25.57,0,0,0,48,15.18ZM36.35,32.46h11a3.86,3.86,0,0,1,2.06.56,6,6,0,0,1,1.7,1.56,8.43,8.43,0,0,1,1.15,2.15,6.26,6.26,0,0,1,.4,2.11,7.08,7.08,0,0,1-.81,3.09,6.49,6.49,0,0,1-2.16,2.56L49,45l.39.78L54.7,56.47a21.34,21.34,0,0,1-6.74,1H45.79L40.58,45.82l-.27-.59h-4V32.46Zm0,17.76h.76l3.32,7.29H36.35V50.22ZM48.1,62.5a26.08,26.08,0,0,0,8.83-1.57l6.69,13.52H53.5l-5.4-12ZM438.31,27.88a23.44,23.44,0,0,0-8.19,1.44,21,21,0,0,0-6.8,4,19.46,19.46,0,0,0-4.64,6.3,19.08,19.08,0,0,0-1.71,8,20.92,20.92,0,0,0,1.49,7.93A18.73,18.73,0,0,0,422.62,62a19.6,19.6,0,0,0,6.29,4.2,20.16,20.16,0,0,0,7.9,1.53,14,14,0,0,0,2.86-.31,15.46,15.46,0,0,0,3-.93,24.08,24.08,0,0,0,2.69-1.34A10.45,10.45,0,0,0,447,64l7.35,4.83a20.41,20.41,0,0,1-6.66,5,21.82,21.82,0,0,1-9.36,2.06,23.37,23.37,0,0,1-8.76-1.63,22.21,22.21,0,0,1-7.07-4.49A20.36,20.36,0,0,1,417.77,63a21.44,21.44,0,0,1-1.7-8.61v-1h-5v1a26,26,0,0,0,2.12,10.53A26.3,26.3,0,0,0,419,73.3a26.66,26.66,0,0,0,8.67,5.57,28.49,28.49,0,0,0,10.62,2,25.56,25.56,0,0,0,13.25-3.42,26.4,26.4,0,0,0,9.18-9.1l.5-.83-.81-.53-13.69-9-.88-.58-.53.91A6.53,6.53,0,0,1,443.89,60a11.17,11.17,0,0,1-2.18,1.45,12.19,12.19,0,0,1-2.5,1,9.25,9.25,0,0,1-2.4.34,15.52,15.52,0,0,1-5.92-1.12,14.21,14.21,0,0,1-4.69-3.14,14.69,14.69,0,0,1-3.11-4.78,15.75,15.75,0,0,1-1.13-6,14.1,14.1,0,0,1,1.27-6A14.27,14.27,0,0,1,426.72,37,16.64,16.64,0,0,1,431.93,34a18.4,18.4,0,0,1,6.38-1.1,22.87,22.87,0,0,1,9.5,2,18,18,0,0,1,6.56,4.94L447,44.65a16.82,16.82,0,0,0-3.74-2.4,11.82,11.82,0,0,0-5-1.09,12.66,12.66,0,0,0-5.09,1A13.63,13.63,0,0,0,429,45.07a13.46,13.46,0,0,0-2.87,4.21,12.61,12.61,0,0,0-1,5.08v1H430v-1a7.7,7.7,0,0,1,.66-3.12,8.31,8.31,0,0,1,1.82-2.63,9.18,9.18,0,0,1,2.66-1.8,7.58,7.58,0,0,1,3.16-.66,7.45,7.45,0,0,1,4.07,1.18,8.46,8.46,0,0,1,2.94,3l.52.94.9-.59,13.69-9,.81-.53-.5-.83a26.4,26.4,0,0,0-9.18-9.1,25.56,25.56,0,0,0-13.25-3.42Zm-336.23,0a21.84,21.84,0,0,0-8.48,1.66A22.68,22.68,0,0,0,86.7,34,21,21,0,0,0,82,40.59a19.51,19.51,0,0,0-1.74,8.13A19.83,19.83,0,0,0,82,56.89a21,21,0,0,0,4.66,6.62A22.61,22.61,0,0,0,93.52,68,22,22,0,0,0,102,69.64a28.32,28.32,0,0,0,5.85-.6,31.69,31.69,0,0,0,5.78-2l3.1,5.19a25.17,25.17,0,0,1-6.7,2.61,35.83,35.83,0,0,1-8,1,25.75,25.75,0,0,1-8.66-1.64,22.55,22.55,0,0,1-7.19-4.37,21.78,21.78,0,0,1-5-6.7,19.77,19.77,0,0,1-1.85-8.62v-1h-5v1A24.93,24.93,0,0,0,76.6,65.08a26.07,26.07,0,0,0,6.09,8.33,28.94,28.94,0,0,0,8.81,5.46,28.4,28.4,0,0,0,10.5,2,34.79,34.79,0,0,0,11.19-1.72,38.39,38.39,0,0,0,9.37-4.68l.76-.52-.45-.8-6.64-11.79-.14-.25h11.6l.18-.77a28.54,28.54,0,0,0,.52-2.84,25.19,25.19,0,0,0,.17-2.95,27.92,27.92,0,0,0-2-10.54A25.5,25.5,0,0,0,121,35.52a26.21,26.21,0,0,0-8.41-5.61,27.15,27.15,0,0,0-10.51-2ZM102,64.65a17,17,0,0,1-6.51-1.25A16.49,16.49,0,0,1,90.16,60a16.72,16.72,0,0,1-3.61-5.09,14.94,14.94,0,0,1,0-12.28,16.4,16.4,0,0,1,3.6-5,17,17,0,0,1,5.37-3.41,17.29,17.29,0,0,1,6.56-1.26,21,21,0,0,1,19.86,13.24,22.11,22.11,0,0,1,1.63,8.42c0,.41,0,.82,0,1.22l0,.35H94.85A7,7,0,0,1,94,54.52a5.58,5.58,0,0,1-.43-2.15,8.13,8.13,0,0,1,.67-3.29,9,9,0,0,1,4.59-4.59,8.38,8.38,0,0,1,6.35-.07,8.62,8.62,0,0,1,2.58,1.6,8.82,8.82,0,0,1,1.86,2.39,8.7,8.7,0,0,1,1,2.94l.12.86h5l-.12-1.11a13.48,13.48,0,0,0-1.43-4.75,15,15,0,0,0-2.94-3.92,13.07,13.07,0,0,0-9.07-3.59,13,13,0,0,0-5.26,1.08,13.77,13.77,0,0,0-7.2,7.2,13.15,13.15,0,0,0-1.07,5.25A10.17,10.17,0,0,0,89.65,57,21.93,21.93,0,0,0,92,60.71l.3.38h22.36a25.18,25.18,0,0,1-5.39,2.45A22.63,22.63,0,0,1,102,64.65ZM378.72,29.38h-4.34l-.28.22-13.5,11H337.05V34.37h27.89v-5H332.06V45.57h22.35l-22,17.9-.37.3V79.43h46.66V63.24H359l10.56-9,.79-.67-.71-.77-2-2.15-.65-.71-.73.62L351.17,63.48l-.35.3v4.45h22.91v6.22H337.05V66l25.17-20.47h16.5V29.38Zm-10.38,11.2,5.39-4.37v4.37Zm-43.4-11.2H306V62.75a12.78,12.78,0,0,1-1,5.08A13.76,13.76,0,0,1,302.15,72,13.45,13.45,0,0,1,298,74.82a12.93,12.93,0,0,1-10.16,0,13.27,13.27,0,0,1-7-7,12.61,12.61,0,0,1-1-5.08V34.37h9V56.85a11,11,0,0,0,.87,4.34,10.92,10.92,0,0,0,5.92,5.92,11,11,0,0,0,4.33.87h1V63h-1a5.64,5.64,0,0,1-2.36-.49,6.35,6.35,0,0,1-3.28-3.28,5.65,5.65,0,0,1-.49-2.37V29.38H274.79V62.75a18.1,18.1,0,1,0,36.2,0V34.37h9V74.45H309v5h15.95V29.38Z"/></g><g id="Layer_2" data-name="Layer 2"><g class="cls-3"><rect class="cls-4" y="-1" width="482" height="92"/></g></g></svg>